<mxfile host="65bd71144e">
    <diagram id="UUI74lgACSPD245kfp1Y" name="Page-1">
        <mxGraphModel dx="1459" dy="1414" grid="1" gridSize="10" guides="1" tooltips="1" connect="1" arrows="1" fold="1" page="1" pageScale="1" pageWidth="1600" pageHeight="900" math="0" shadow="0">
            <root>
                <mxCell id="0"/>
                <mxCell id="1" parent="0"/>
                <mxCell id="11" value="Start" style="ellipse" vertex="1" parent="1">
                    <mxGeometry x="90" y="335" width="80" height="30" as="geometry"/>
                </mxCell>
                <mxCell id="12" value="Entry" style="rounded=1;" vertex="1" parent="1">
                    <mxGeometry x="220" y="195" width="80" height="30" as="geometry"/>
                </mxCell>
                <mxCell id="13" value="" style="edgeStyle=elbowEdgeStyle;elbow=horizontal;" edge="1" source="11" target="12" parent="1">
                    <mxGeometry relative="1" as="geometry"/>
                </mxCell>
                <mxCell id="14" value="Entry" style="rounded=1;" vertex="1" parent="1">
                    <mxGeometry x="220" y="265" width="80" height="30" as="geometry"/>
                </mxCell>
                <mxCell id="15" value="" style="edgeStyle=elbowEdgeStyle;elbow=horizontal;" edge="1" source="11" target="14" parent="1">
                    <mxGeometry relative="1" as="geometry"/>
                </mxCell>
                <mxCell id="16" value="Entry" style="rounded=1;" vertex="1" parent="1">
                    <mxGeometry x="220" y="335" width="80" height="30" as="geometry"/>
                </mxCell>
                <mxCell id="17" value="" style="edgeStyle=elbowEdgeStyle;elbow=horizontal;" edge="1" source="11" target="16" parent="1">
                    <mxGeometry relative="1" as="geometry"/>
                </mxCell>
                <mxCell id="18" value="Entry" style="rounded=1;" vertex="1" parent="1">
                    <mxGeometry x="220" y="405" width="80" height="30" as="geometry"/>
                </mxCell>
                <mxCell id="19" value="" style="edgeStyle=elbowEdgeStyle;elbow=horizontal;" edge="1" source="11" target="18" parent="1">
                    <mxGeometry relative="1" as="geometry"/>
                </mxCell>
                <mxCell id="20" value="Entry" style="rounded=1;" vertex="1" parent="1">
                    <mxGeometry x="220" y="475" width="80" height="30" as="geometry"/>
                </mxCell>
                <mxCell id="21" value="" style="edgeStyle=elbowEdgeStyle;elbow=horizontal;" edge="1" source="11" target="20" parent="1">
                    <mxGeometry relative="1" as="geometry"/>
                </mxCell>
                <mxCell id="22" value="Entry" style="rounded=1;" vertex="1" parent="1">
                    <mxGeometry x="350" y="265" width="80" height="30" as="geometry"/>
                </mxCell>
                <mxCell id="23" value="" style="edgeStyle=elbowEdgeStyle;elbow=horizontal;" edge="1" source="14" target="22" parent="1">
                    <mxGeometry relative="1" as="geometry"/>
                </mxCell>
                <mxCell id="24" value="Entry" style="rounded=1;" vertex="1" parent="1">
                    <mxGeometry x="350" y="195" width="80" height="30" as="geometry"/>
                </mxCell>
                <mxCell id="25" value="" style="edgeStyle=elbowEdgeStyle;elbow=horizontal;" edge="1" source="12" target="24" parent="1">
                    <mxGeometry relative="1" as="geometry"/>
                </mxCell>
                <mxCell id="26" value="Entry" style="rounded=1;" vertex="1" parent="1">
                    <mxGeometry x="350" y="335" width="80" height="30" as="geometry"/>
                </mxCell>
                <mxCell id="27" value="" style="edgeStyle=elbowEdgeStyle;elbow=horizontal;" edge="1" source="16" target="26" parent="1">
                    <mxGeometry relative="1" as="geometry"/>
                </mxCell>
                <mxCell id="28" value="Entry" style="rounded=1;" vertex="1" parent="1">
                    <mxGeometry x="350" y="405" width="80" height="30" as="geometry"/>
                </mxCell>
                <mxCell id="29" value="" style="edgeStyle=elbowEdgeStyle;elbow=horizontal;" edge="1" source="18" target="28" parent="1">
                    <mxGeometry relative="1" as="geometry"/>
                </mxCell>
                <mxCell id="30" value="Entry" style="rounded=1;" vertex="1" parent="1">
                    <mxGeometry x="500" y="100" width="80" height="30" as="geometry"/>
                </mxCell>
                <mxCell id="31" value="" style="edgeStyle=elbowEdgeStyle;elbow=horizontal;exitX=1;exitY=0.5;exitDx=0;exitDy=0;entryX=0;entryY=0.5;entryDx=0;entryDy=0;" edge="1" parent="1" source="24" target="30">
                    <mxGeometry relative="1" as="geometry">
                        <mxPoint x="450" y="230" as="sourcePoint"/>
                        <mxPoint x="480" y="209.5" as="targetPoint"/>
                    </mxGeometry>
                </mxCell>
            </root>
        </mxGraphModel>
    </diagram>
</mxfile>